<svg id="balloons" xmlns="http://www.w3.org/2000/svg" width="117.258" height="117.258" viewBox="0 0 117.258 117.258">
  <g id="Group_566" data-name="Group 566" transform="translate(1.718 1.718)">
    <g id="Group_560" data-name="Group 560" transform="translate(30.173 38.992)">
      <path id="Path_2784" data-name="Path 2784" d="M222.279,427.465a1.718,1.718,0,0,1-1.718-1.718V404.072a1.718,1.718,0,0,1,3.435,0v21.676A1.718,1.718,0,0,1,222.279,427.465Z" transform="translate(-201.938 -350.917)" fill="#f0f9f4"/>
      <g id="Group_559" data-name="Group 559">
        <path id="Path_2785" data-name="Path 2785" d="M217.508,399.536h-2.126a2.385,2.385,0,0,1-2.266-3.132l1.843-5.589h2.972l1.843,5.589A2.385,2.385,0,0,1,217.508,399.536Z" transform="translate(-196.105 -342.022)" fill="#ffa100"/>
        <path id="Path_2786" data-name="Path 2786" d="M179.927,198.169c0,13.825-9.107,29.654-20.34,29.654s-20.34-15.829-20.34-29.654,9.107-20.411,20.34-20.411S179.927,184.344,179.927,198.169Z" transform="translate(-139.247 -177.758)" fill="#ffa100"/>
        <path id="Path_2787" data-name="Path 2787" d="M212.641,177.758a26.266,26.266,0,0,0-4.58.39c9.028,1.6,15.76,8.134,15.76,20.021s-6.732,25.255-15.76,28.77a12.566,12.566,0,0,0,4.58.885c11.234,0,20.34-15.829,20.34-29.654s-9.107-20.412-20.34-20.412Z" transform="translate(-192.301 -177.758)" fill="#ffa100"/>
      </g>
    </g>
    <g id="Group_562" data-name="Group 562" transform="translate(0 9.112)">
      <path id="Path_2788" data-name="Path 2788" d="M82.865,331.205a1.718,1.718,0,0,1-1.718-1.718,11.148,11.148,0,0,0-1.027-4.052c-.906-2.324-1.933-4.958-.416-8.4a17.513,17.513,0,0,1,1.919-3.163c.993-1.388,1.784-2.493,1.832-4.184-.005-.055-.008-.11-.008-.167,0-1.787-.81-2.918-1.835-4.351a17.5,17.5,0,0,1-1.919-3.163c-1.517-3.439-.491-6.074.416-8.4a11.142,11.142,0,0,0,1.027-4.052V279.218a1.718,1.718,0,1,1,3.435,0V289.56a14.187,14.187,0,0,1-1.262,5.3c-.821,2.107-1.415,3.629-.473,5.764a14.365,14.365,0,0,0,1.57,2.551,10.379,10.379,0,0,1,2.474,6.14,1.71,1.71,0,0,1,.013.21,10.266,10.266,0,0,1-2.476,6.35,14.362,14.362,0,0,0-1.57,2.551c-.941,2.134-.348,3.657.473,5.764a14.187,14.187,0,0,1,1.262,5.3A1.717,1.717,0,0,1,82.865,331.205Zm4.018-21.681h0Z" transform="translate(-62.563 -224.776)" fill="#f0f9f4"/>
      <g id="Group_561" data-name="Group 561">
        <path id="Path_2789" data-name="Path 2789" d="M85.761,269.064H83.636a2.385,2.385,0,0,1-2.266-3.132l1.843-5.589h2.972l1.843,5.589A2.385,2.385,0,0,1,85.761,269.064Z" transform="translate(-64.358 -211.55)" fill="#b8de6f"/>
        <path id="Path_2790" data-name="Path 2790" d="M48.18,67.7c0,13.825-9.107,29.654-20.34,29.654S7.5,81.524,7.5,67.7s9.107-20.411,20.34-20.411S48.18,53.873,48.18,67.7Z" transform="translate(-7.5 -47.287)" fill="#b8de6f"/>
        <path id="Path_2791" data-name="Path 2791" d="M80.894,47.286a26.267,26.267,0,0,0-4.58.39c9.028,1.6,15.76,8.134,15.76,20.021s-6.732,25.255-15.76,28.77a12.566,12.566,0,0,0,4.58.885c11.234,0,20.34-15.829,20.34-29.654s-9.107-20.412-20.34-20.412Z" transform="translate(-60.554 -47.286)" fill="#b8de6f"/>
      </g>
    </g>
    <g id="Group_565" data-name="Group 565" transform="translate(22.963)">
      <path id="Path_2792" data-name="Path 2792" d="M402.386,297.282a1.718,1.718,0,0,1-1.718-1.718v-6.711a11.147,11.147,0,0,0-1.027-4.052c-.906-2.324-1.933-4.958-.416-8.4a17.506,17.506,0,0,1,1.919-3.163c1.025-1.433,1.835-2.564,1.835-4.351s-.83-2.955-1.881-4.441A16.045,16.045,0,0,1,399,260.8c-1.126-2.993-.343-4.931.413-6.806a13.808,13.808,0,0,0,1.256-5.829V235.218a1.718,1.718,0,0,1,3.435,0v12.946a17.156,17.156,0,0,1-1.506,7.115c-.691,1.711-1.038,2.571-.383,4.31a12.944,12.944,0,0,0,1.689,2.877c1.177,1.665,2.511,3.552,2.511,6.425a10.268,10.268,0,0,1-2.476,6.35,14.352,14.352,0,0,0-1.57,2.551c-.942,2.134-.348,3.657.473,5.764a14.188,14.188,0,0,1,1.262,5.3v6.711A1.717,1.717,0,0,1,402.386,297.282Z" transform="translate(-331.866 -181.742)" fill="#f0f9f4"/>
      <path id="Path_2793" data-name="Path 2793" d="M405.3,227.36h-2.126a2.385,2.385,0,0,1-2.266-3.132l1.843-5.589h2.971l1.843,5.589A2.385,2.385,0,0,1,405.3,227.36Z" transform="translate(-333.68 -170.285)" fill="#ad6bff"/>
      <g id="Group_564" data-name="Group 564">
        <path id="Path_2794" data-name="Path 2794" d="M367.552,27.911c0,13.825-9.107,29.654-20.34,29.654s-20.34-15.829-20.34-29.654S335.979,7.5,347.212,7.5,367.552,14.086,367.552,27.911Z" transform="translate(-276.692 -7.5)" fill="#c89cff"/>
        <path id="Path_2795" data-name="Path 2795" d="M400.266,7.5a26.267,26.267,0,0,0-4.58.39c9.028,1.6,15.76,8.134,15.76,20.021s-6.732,25.255-15.76,28.77a12.566,12.566,0,0,0,4.58.885c11.234,0,20.34-15.829,20.34-29.654S411.5,7.5,400.266,7.5Z" transform="translate(-329.746 -7.5)" fill="#c18fff"/>
        <g id="Group_563" data-name="Group 563" transform="translate(0 5.697)">
          <path id="Path_2796" data-name="Path 2796" d="M247.746,205.8a13.571,13.571,0,0,0-6.117-3.12,1.718,1.718,0,1,0-.8,3.341,10.187,10.187,0,0,1,4.594,2.311,9.173,9.173,0,0,1,2.545,4.272,1.718,1.718,0,1,0,3.3-.967A12.552,12.552,0,0,0,247.746,205.8Z" transform="translate(-209.339 -163.639)" fill="#f0f9f4"/>
          <path id="Path_2797" data-name="Path 2797" d="M116,75.328a13.568,13.568,0,0,0-6.117-3.12,1.718,1.718,0,0,0-.8,3.341,10.187,10.187,0,0,1,4.594,2.311,9.176,9.176,0,0,1,2.545,4.272,1.718,1.718,0,1,0,3.3-.967A12.554,12.554,0,0,0,116,75.328Z" transform="translate(-107.765 -63.049)" fill="#f0f9f4"/>
          <path id="Path_2798" data-name="Path 2798" d="M438.892,41.379a12.555,12.555,0,0,0-3.52-5.837,13.57,13.57,0,0,0-6.117-3.12,1.718,1.718,0,0,0-.8,3.341,10.189,10.189,0,0,1,4.594,2.311,9.175,9.175,0,0,1,2.545,4.272,1.718,1.718,0,1,0,3.3-.967Z" transform="translate(-353.995 -32.375)" fill="#f0f9f4"/>
        </g>
      </g>
    </g>
  </g>
  <g id="Group_567" data-name="Group 567" transform="translate(29.258)">
    <path id="Path_2799" data-name="Path 2799" d="M129.414,3.435a1.719,1.719,0,0,0,0-3.435A1.719,1.719,0,0,0,129.414,3.435Z" transform="translate(-127.755)" fill="#ffa100"/>
  </g>
  <g id="Group_568" data-name="Group 568" transform="translate(66.331 3.321)">
    <path id="Path_2800" data-name="Path 2800" d="M291.289,17.935a1.719,1.719,0,0,0,0-3.435A1.719,1.719,0,0,0,291.289,17.935Z" transform="translate(-289.63 -14.5)" fill="#ffa100"/>
  </g>
  <g id="Group_569" data-name="Group 569" transform="translate(59.106 29.429)">
    <path id="Path_2801" data-name="Path 2801" d="M259.74,131.935a1.719,1.719,0,0,0,0-3.435A1.719,1.719,0,0,0,259.74,131.935Z" transform="translate(-258.081 -128.5)" fill="#ffa100"/>
  </g>
  <g id="Group_570" data-name="Group 570" transform="translate(80.101 66.627)">
    <path id="Path_2802" data-name="Path 2802" d="M351.414,294.356a1.719,1.719,0,0,0,0-3.435A1.719,1.719,0,0,0,351.414,294.356Z" transform="translate(-349.755 -290.921)" fill="#ffa100"/>
  </g>
  <g id="Group_571" data-name="Group 571" transform="translate(0 60.15)">
    <path id="Path_2803" data-name="Path 2803" d="M1.659,266.078a1.719,1.719,0,0,0,0-3.435A1.719,1.719,0,0,0,1.659,266.078Z" transform="translate(0 -262.643)" fill="#ffa100"/>
  </g>
  <g id="Group_572" data-name="Group 572" transform="translate(0.058 113.823)">
    <path id="Path_2804" data-name="Path 2804" d="M1.914,500.435a1.719,1.719,0,0,0,0-3.435A1.719,1.719,0,0,0,1.914,500.435Z" transform="translate(-0.255 -497)" fill="#ffa100"/>
  </g>
  <g id="Group_573" data-name="Group 573" transform="translate(8.074 76.607)">
    <path id="Path_2805" data-name="Path 2805" d="M36.914,337.935a1.719,1.719,0,0,0,0-3.435A1.719,1.719,0,0,0,36.914,337.935Z" transform="translate(-35.255 -334.5)" fill="#ffa100"/>
  </g>
  <g id="Group_574" data-name="Group 574" transform="translate(109.393 93.423)">
    <path id="Path_2806" data-name="Path 2806" d="M479.317,411.359a1.719,1.719,0,0,0,0-3.435A1.719,1.719,0,0,0,479.317,411.359Z" transform="translate(-477.658 -407.924)" fill="#ffa100"/>
  </g>
  <g id="Group_575" data-name="Group 575" transform="translate(104.905 77.065)">
    <path id="Path_2807" data-name="Path 2807" d="M459.719,339.935a1.719,1.719,0,0,0,0-3.435A1.719,1.719,0,0,0,459.719,339.935Z" transform="translate(-458.06 -336.5)" fill="#ffa100"/>
  </g>
  <g id="Group_576" data-name="Group 576" transform="translate(33.839 107.455)">
    <path id="Path_2808" data-name="Path 2808" d="M149.414,472.63a1.719,1.719,0,0,0,0-3.435A1.719,1.719,0,0,0,149.414,472.63Z" transform="translate(-147.755 -469.195)" fill="#ffa100"/>
  </g>
  <g id="Group_578" data-name="Group 578" transform="translate(0 0)">
    <path id="Path_2809" data-name="Path 2809" d="M7.421.5A1.717,1.717,0,0,0,4.992.5L.5,4.992A1.718,1.718,0,1,0,2.932,7.421L7.421,2.932A1.717,1.717,0,0,0,7.421.5Z" transform="translate(0 0)" fill="#b8de6f"/>
    <path id="Path_2810" data-name="Path 2810" d="M219.694,44.09a1.718,1.718,0,1,0-2.429,2.429l4.488,4.488a1.718,1.718,0,0,0,2.429-2.429Z" transform="translate(-167.119 -33.605)" fill="#374321"/>
    <g id="Group_577" data-name="Group 577" transform="translate(4.488 88.131)">
      <path id="Path_2811" data-name="Path 2811" d="M325.736,385.32l-4.488,4.488a1.718,1.718,0,1,0,2.429,2.429l4.488-4.488a1.718,1.718,0,0,0-2.429-2.429Z" transform="translate(-251.776 -384.817)" fill="#b8de6f"/>
      <path id="Path_2812" data-name="Path 2812" d="M22.53,408.427a1.718,1.718,0,1,0-2.429,2.429l4.488,4.488a1.718,1.718,0,1,0,2.429-2.429Z" transform="translate(-19.598 -402.632)" fill="#b8de6f"/>
      <path id="Path_2813" data-name="Path 2813" d="M460.737,477.905a1.718,1.718,0,1,0-2.429,2.429l4.488,4.488a1.718,1.718,0,0,0,2.429-2.429Z" transform="translate(-357.447 -456.199)" fill="#b8de6f"/>
    </g>
    <path id="Path_2814" data-name="Path 2814" d="M484.823,246.119a1.717,1.717,0,0,0-2.429,0l-4.488,4.488a1.718,1.718,0,1,0,2.429,2.429l4.488-4.488A1.717,1.717,0,0,0,484.823,246.119Z" transform="translate(-368.068 -189.365)" fill="#374321"/>
    <path id="Path_2815" data-name="Path 2815" d="M282.508,477.905a1.718,1.718,0,1,0-2.429,2.429l4.488,4.488A1.718,1.718,0,0,0,287,482.394Z" transform="translate(-215.548 -368.068)" fill="#374321"/>
  </g>
</svg>
