<svg xmlns="http://www.w3.org/2000/svg" width="19.596" height="24.969" viewBox="0 0 19.596 24.969">
  <g id="calories" transform="translate(-55.093 0)">
    <path id="Path_2700" data-name="Path 2700" d="M211.912,356.661a5.224,5.224,0,0,0-2.262,3.843,2.26,2.26,0,1,0,4.521,0C214.171,358.712,212.646,357.258,211.912,356.661Z" transform="translate(-147.02 -339.267)" fill="#374321"/>
    <path id="Path_2701" data-name="Path 2701" d="M70.188,4.346a.731.731,0,0,0-1.046-.05L65.7,7.509V.781A.807.807,0,0,0,64.513.1a23.552,23.552,0,0,0-4.7,3.992,16.474,16.474,0,0,0-4.725,11.052,9.821,9.821,0,0,0,9.8,9.822,3.732,3.732,0,0,1-3.723-3.732c0-3.326,3.229-5.295,3.366-5.377a.73.73,0,0,1,.777.017c.135.089,3.3,2.214,3.3,5.36a3.732,3.732,0,0,1-3.723,3.732,9.821,9.821,0,0,0,9.8-9.822A16.339,16.339,0,0,0,70.188,4.346Z" transform="translate(0 0)" fill="#374321"/>
  </g>
</svg>
