<svg xmlns="http://www.w3.org/2000/svg" width="16" height="16" viewBox="0 0 16 16">
  <g id="distance" transform="translate(0 -2)">
    <g id="Group_484" data-name="Group 484" transform="translate(0 2)">
      <g id="Group_483" data-name="Group 483">
        <path id="Path_2674" data-name="Path 2674" d="M344,0a2.67,2.67,0,0,0-2.667,2.667c0,1.275,1.89,3.857,2.332,4.444,0,.19,0,.376,0,.547a.333.333,0,0,0,.325.342H344a.334.334,0,0,0,.333-.325c0-.176,0-.367,0-.562.44-.584,2.334-3.17,2.334-4.447A2.67,2.67,0,0,0,344,0Zm0,3.333a.667.667,0,1,1,.667-.667A.668.668,0,0,1,344,3.333Z" transform="translate(-330.667)" fill="#ffa100"/>
        <path id="Path_2675" data-name="Path 2675" d="M293.3,306.067a2.708,2.708,0,0,0-1.038,1.234.333.333,0,1,0,.6.288,1.992,1.992,0,0,1,.767-.943.333.333,0,1,0-.329-.579Z" transform="translate(-283.094 -296.46)" fill="#ffa100"/>
        <path id="Path_2676" data-name="Path 2676" d="M186.3,460.04a3.65,3.65,0,0,1-1.161.609.333.333,0,0,0,.206.634,4.364,4.364,0,0,0,1.368-.721.333.333,0,1,0-.414-.523Z" transform="translate(-179.132 -445.594)" fill="#ffa100"/>
        <path id="Path_2677" data-name="Path 2677" d="M256.451,383.73a.333.333,0,0,0-.431.19,7.8,7.8,0,0,1-.588,1.249.333.333,0,0,0,.569.348,8.441,8.441,0,0,0,.641-1.355A.334.334,0,0,0,256.451,383.73Z" transform="translate(-247.402 -371.716)" fill="#ffa100"/>
        <path id="Path_2678" data-name="Path 2678" d="M367.526,279.254a.334.334,0,0,0-.463.089c-.11.162-.334.385-1.014.446a.333.333,0,0,0,.03.665h.03a1.89,1.89,0,0,0,1.506-.736A.333.333,0,0,0,367.526,279.254Z" transform="translate(-354.316 -270.472)" fill="#ffa100"/>
        <path id="Path_2679" data-name="Path 2679" d="M4.79,180.671c1.052-1.122,3.21-3.7,3.21-6a3.958,3.958,0,0,0-4-4,3.958,3.958,0,0,0-4,4c0,2.957,3.565,6.38,3.764,6.568h0l.006.006a.314.314,0,0,0,.046.029.326.326,0,0,0,.057.036.333.333,0,0,0,.125.025q.364,0,.692-.025A.333.333,0,0,0,5,180.951.327.327,0,0,0,4.79,180.671Zm-.79-4a2,2,0,1,1,2-2A2,2,0,0,1,4,176.667Z" transform="translate(0 -165.334)" fill="#ffa100"/>
      </g>
    </g>
  </g>
</svg>
