<svg width="20" height="16" viewBox="0 0 20 16" fill="none" xmlns="http://www.w3.org/2000/svg">
<path d="M6 16C4.17526 16.0009 2.58119 14.7668 2.125 13H0V11H2.126C2.64564 8.98745 4.62012 7.70825 6.66928 8.05657C8.71845 8.40488 10.1594 10.2646 9.98486 12.3358C9.81035 14.4071 8.07856 15.9995 6 16ZM6 10C4.9074 10.0011 4.01789 10.8789 4.00223 11.9713C3.98658 13.0638 4.85057 13.9667 5.94269 13.9991C7.03481 14.0315 7.95083 13.1815 8 12.09V12.49V12C8 10.8954 7.10457 10 6 10ZM20 13H11V11H20V13ZM11 8C9.17563 8.00047 7.58209 6.76645 7.126 5H0V3H7.126C7.64564 0.987451 9.62012 -0.291746 11.6693 0.0565671C13.7184 0.40488 15.1594 2.26462 14.9849 4.33584C14.8103 6.40706 13.0786 7.99948 11 8ZM11 2C9.9074 2.00111 9.01789 2.87885 9.00223 3.97134C8.98658 5.06384 9.85056 5.96671 10.9427 5.99912C12.0348 6.03154 12.9508 5.1815 13 4.09V4.49001V4C13 2.89544 12.1046 2 11 2ZM20 5H16V3H20V5Z" fill="#33EE51"/>
</svg>
