<svg id="search" xmlns="http://www.w3.org/2000/svg" width="24.733" height="24.733" viewBox="0 0 24.733 24.733">
  <path id="Path_2670" data-name="Path 2670" d="M5.481,146.535l-.861,3.214-3.147.067a12.388,12.388,0,0,1-.091-11.548h0l2.8.514,1.227,2.785a7.38,7.38,0,0,0,.069,4.969Z" transform="translate(0 -131.589)" fill="#fbbb00"/>
  <path id="Path_2671" data-name="Path 2671" d="M273.507,208.176A12.362,12.362,0,0,1,269.1,220.13h0l-3.529-.18-.5-3.118a7.37,7.37,0,0,0,3.171-3.764h-6.613v-4.892h11.879Z" transform="translate(-248.99 -198.12)" fill="#518ef8"/>
  <path id="Path_2672" data-name="Path 2672" d="M49.143,316.472h0a12.371,12.371,0,0,1-18.635-3.783l4.008-3.281a7.355,7.355,0,0,0,10.6,3.766Z" transform="translate(-29.035 -294.462)" fill="#28b446"/>
  <path id="Path_2673" data-name="Path 2673" d="M47.5,2.847,43.5,6.127A7.354,7.354,0,0,0,32.653,9.978l-4.029-3.3h0A12.369,12.369,0,0,1,47.5,2.847Z" transform="translate(-27.241)" fill="#f14336"/>
</svg>
