<svg id="Component_31_1" data-name="Component 31 – 1" xmlns="http://www.w3.org/2000/svg" xmlns:xlink="http://www.w3.org/1999/xlink" width="40" height="40" viewBox="0 0 40 40">
  <defs>
    <clipPath id="clip-path">
      <circle id="Ellipse_115" data-name="Ellipse 115" cx="20" cy="20" r="20" transform="translate(43 715)" fill="#d7ddda"/>
    </clipPath>
  </defs>
  <g id="Mask_Group_1" data-name="Mask Group 1" transform="translate(-43 -715)" clip-path="url(#clip-path)">
    <g id="mad" transform="translate(43 715)">
      <circle id="Ellipse_116" data-name="Ellipse 116" cx="20" cy="20" r="20" transform="translate(0 0)" fill="#ffc10e"/>
      <g id="Group_422" data-name="Group 422">
        <path id="Path_2472" data-name="Path 2472" d="M30.158,29.945a14.1,14.1,0,0,0-20.319,0c-.708.731.407,1.849,1.116,1.116a12.5,12.5,0,0,1,18.086,0c.709.733,1.825-.385,1.116-1.116Z" fill="#333"/>
        <circle id="Ellipse_117" data-name="Ellipse 117" cx="3.141" cy="3.141" r="3.141" transform="translate(10.78 13.12)" fill="#333"/>
        <circle id="Ellipse_118" data-name="Ellipse 118" cx="3.141" cy="3.141" r="3.141" transform="translate(22.657 13.12)" fill="#333"/>
        <path id="Path_2473" data-name="Path 2473" d="M26.7,5.772l-7.26,7.26h1.116L13.3,5.772a.79.79,0,0,0-1.116,1.116l7.26,7.26a.8.8,0,0,0,1.116,0l7.26-7.26A.79.79,0,0,0,26.7,5.772Z" fill="#333"/>
      </g>
    </g>
  </g>
</svg>
