<svg xmlns="http://www.w3.org/2000/svg" width="24" height="24.84" viewBox="0 0 24 24.84">
  <g id="food" transform="translate(-25.256 -17.156)">
    <path id="Path_2690" data-name="Path 2690" d="M29.153,363h-3.9l2.089,7.524h4.127l-.616-2.032Zm-.35,7.155a.953.953,0,1,1,.954-.953A.953.953,0,0,1,28.8,370.155Z" transform="translate(0 -328.528)" fill="#374321"/>
    <path id="Path_2691" data-name="Path 2691" d="M81.142,465.069a.383.383,0,1,0,.384.384A.384.384,0,0,0,81.142,465.069Z" transform="translate(-52.339 -424.779)" fill="#374321"/>
    <path id="Path_2692" data-name="Path 2692" d="M254,79.364c.171-.01.418-.016.627-.016s.4.006.627.016v-.911a2.254,2.254,0,0,1-.627.1,1.971,1.971,0,0,1-.627-.1Z" transform="translate(-216.91 -57.803)" fill="#374321"/>
    <path id="Path_2693" data-name="Path 2693" d="M123.548,334.175l-3.43,1.85-.34.179c0,.055.006.11.006.165a.285.285,0,0,1-.285.285h-.013l-2.368-.107a11.449,11.449,0,0,0-2.081.1.285.285,0,0,1-.078-.564,12.031,12.031,0,0,1,2.185-.1l2.045.093a1.782,1.782,0,0,0-1.754-1.48H114.66a3.607,3.607,0,0,1-1.561-.358l-.286-.139a4.317,4.317,0,0,0-4.484.432l-.682.607a2.992,2.992,0,0,1-1.179.645l1.406,4.525,1.945-1.23.013-.008a1.829,1.829,0,0,1,1.335-.181l4.163.767a4.78,4.78,0,0,0,.505.064,4.647,4.647,0,0,0,2.949-.822l6.451-4.429A1.385,1.385,0,0,0,123.548,334.175Z" transform="translate(-78.898 -300.859)" fill="#374321"/>
    <path id="Path_2694" data-name="Path 2694" d="M86.932,104.223a9.812,9.812,0,0,0-9.51,7.91H96.441A9.811,9.811,0,0,0,86.932,104.223ZM82.9,108.072a6.761,6.761,0,0,0-1.749,1.946.238.238,0,0,1-.353.078.307.307,0,0,1-.069-.4,7.3,7.3,0,0,1,1.888-2.1.238.238,0,0,1,.352.078.307.307,0,0,1-.07.4Zm1.078-.657c-.092.045-.184.092-.273.14a.242.242,0,0,1-.34-.132.3.3,0,0,1,.118-.381c.1-.052.194-.1.293-.151a.244.244,0,0,1,.334.149.3.3,0,0,1-.133.375Z" transform="translate(-49.193 -82.72)" fill="#374321"/>
    <path id="Path_2695" data-name="Path 2695" d="M241.1,18.666a1.51,1.51,0,1,0-1.51,1.51A1.51,1.51,0,0,0,241.1,18.666Z" transform="translate(-201.903 0)" fill="#374321"/>
    <path id="Path_2696" data-name="Path 2696" d="M66.1,287.142a.774.774,0,0,0,.732.682H85.285a.775.775,0,0,0,.729-.664L86.23,286H65.906Z" transform="translate(-38.333 -254.965)" fill="#374321"/>
    <path id="Path_2697" data-name="Path 2697" d="M64.639,253H42.8a.659.659,0,0,0,0,1.311H64.639a.659.659,0,0,0,0-1.311Z" transform="translate(-15.978 -223.644)" fill="#374321"/>
    <path id="Path_2698" data-name="Path 2698" d="M331.521,335.466l2.77-1.495a1.087,1.087,0,0,0-1.22-.285l-2.138,1.152a2.347,2.347,0,0,1,.4.727Z" transform="translate(-290.012 -300.117)" fill="#374321"/>
    <path id="Path_2699" data-name="Path 2699" d="M307.182,330.381l-.007,0-.727.395a2.338,2.338,0,0,1,.963.419l1.425-.767A1.632,1.632,0,0,0,307.182,330.381Z" transform="translate(-266.716 -296.813)" fill="#374321"/>
  </g>
</svg>
